<svg width="1920" height="1080" viewBox="0 0 1920 1080" fill="none" xmlns="http://www.w3.org/2000/svg">
  <defs>
    <linearGradient id="networkGradient" x1="0%" y1="0%" x2="100%" y2="100%">
      <stop offset="0%" style="stop-color:#7C3AED;stop-opacity:0.3" />
      <stop offset="50%" style="stop-color:#3B82F6;stop-opacity:0.2" />
      <stop offset="100%" style="stop-color:#7C3AED;stop-opacity:0.3" />
    </linearGradient>
  </defs>
  
  <!-- Network nodes -->
  <circle cx="200" cy="200" r="4" fill="url(#networkGradient)" />
  <circle cx="500" cy="150" r="4" fill="url(#networkGradient)" />
  <circle cx="800" cy="180" r="4" fill="url(#networkGradient)" />
  <circle cx="1100" cy="220" r="4" fill="url(#networkGradient)" />
  <circle cx="1400" cy="160" r="4" fill="url(#networkGradient)" />
  <circle cx="1700" cy="200" r="4" fill="url(#networkGradient)" />
  
  <circle cx="150" cy="400" r="4" fill="url(#networkGradient)" />
  <circle cx="450" cy="450" r="4" fill="url(#networkGradient)" />
  <circle cx="750" cy="420" r="4" fill="url(#networkGradient)" />
  <circle cx="1050" cy="480" r="4" fill="url(#networkGradient)" />
  <circle cx="1350" cy="440" r="4" fill="url(#networkGradient)" />
  <circle cx="1650" cy="400" r="4" fill="url(#networkGradient)" />
  
  <circle cx="250" cy="600" r="4" fill="url(#networkGradient)" />
  <circle cx="550" cy="650" r="4" fill="url(#networkGradient)" />
  <circle cx="850" cy="620" r="4" fill="url(#networkGradient)" />
  <circle cx="1150" cy="680" r="4" fill="url(#networkGradient)" />
  <circle cx="1450" cy="640" r="4" fill="url(#networkGradient)" />
  <circle cx="1750" cy="600" r="4" fill="url(#networkGradient)" />
  
  <circle cx="300" cy="800" r="4" fill="url(#networkGradient)" />
  <circle cx="600" cy="850" r="4" fill="url(#networkGradient)" />
  <circle cx="900" cy="820" r="4" fill="url(#networkGradient)" />
  <circle cx="1200" cy="880" r="4" fill="url(#networkGradient)" />
  <circle cx="1500" cy="840" r="4" fill="url(#networkGradient)" />
  <circle cx="1800" cy="800" r="4" fill="url(#networkGradient)" />
  
  <!-- Network connections -->
  <line x1="200" y1="200" x2="500" y2="150" stroke="url(#networkGradient)" stroke-width="1" opacity="0.3" />
  <line x1="500" y1="150" x2="800" y2="180" stroke="url(#networkGradient)" stroke-width="1" opacity="0.3" />
  <line x1="800" y1="180" x2="1100" y2="220" stroke="url(#networkGradient)" stroke-width="1" opacity="0.3" />
  <line x1="1100" y1="220" x2="1400" y2="160" stroke="url(#networkGradient)" stroke-width="1" opacity="0.3" />
  <line x1="1400" y1="160" x2="1700" y2="200" stroke="url(#networkGradient)" stroke-width="1" opacity="0.3" />
  
  <line x1="200" y1="200" x2="150" y2="400" stroke="url(#networkGradient)" stroke-width="1" opacity="0.3" />
  <line x1="500" y1="150" x2="450" y2="450" stroke="url(#networkGradient)" stroke-width="1" opacity="0.3" />
  <line x1="800" y1="180" x2="750" y2="420" stroke="url(#networkGradient)" stroke-width="1" opacity="0.3" />
  <line x1="1100" y1="220" x2="1050" y2="480" stroke="url(#networkGradient)" stroke-width="1" opacity="0.3" />
  <line x1="1400" y1="160" x2="1350" y2="440" stroke="url(#networkGradient)" stroke-width="1" opacity="0.3" />
  <line x1="1700" y1="200" x2="1650" y2="400" stroke="url(#networkGradient)" stroke-width="1" opacity="0.3" />
  
  <line x1="150" y1="400" x2="250" y2="600" stroke="url(#networkGradient)" stroke-width="1" opacity="0.3" />
  <line x1="450" y1="450" x2="550" y2="650" stroke="url(#networkGradient)" stroke-width="1" opacity="0.3" />
  <line x1="750" y1="420" x2="850" y2="620" stroke="url(#networkGradient)" stroke-width="1" opacity="0.3" />
  <line x1="1050" y1="480" x2="1150" y2="680" stroke="url(#networkGradient)" stroke-width="1" opacity="0.3" />
  <line x1="1350" y1="440" x2="1450" y2="640" stroke="url(#networkGradient)" stroke-width="1" opacity="0.3" />
  <line x1="1650" y1="400" x2="1750" y2="600" stroke="url(#networkGradient)" stroke-width="1" opacity="0.3" />
  
  <line x1="250" y1="600" x2="300" y2="800" stroke="url(#networkGradient)" stroke-width="1" opacity="0.3" />
  <line x1="550" y1="650" x2="600" y2="850" stroke="url(#networkGradient)" stroke-width="1" opacity="0.3" />
  <line x1="850" y1="620" x2="900" y2="820" stroke="url(#networkGradient)" stroke-width="1" opacity="0.3" />
  <line x1="1150" y1="680" x2="1200" y2="880" stroke="url(#networkGradient)" stroke-width="1" opacity="0.3" />
  <line x1="1450" y1="640" x2="1500" y2="840" stroke="url(#networkGradient)" stroke-width="1" opacity="0.3" />
  <line x1="1750" y1="600" x2="1800" y2="800" stroke="url(#networkGradient)" stroke-width="1" opacity="0.3" />
  
  <!-- Diagonal connections for more complexity -->
  <line x1="200" y1="200" x2="450" y2="450" stroke="url(#networkGradient)" stroke-width="1" opacity="0.2" />
  <line x1="500" y1="150" x2="750" y2="420" stroke="url(#networkGradient)" stroke-width="1" opacity="0.2" />
  <line x1="800" y1="180" x2="1050" y2="480" stroke="url(#networkGradient)" stroke-width="1" opacity="0.2" />
  <line x1="1100" y1="220" x2="1350" y2="440" stroke="url(#networkGradient)" stroke-width="1" opacity="0.2" />
  <line x1="1400" y1="160" x2="1650" y2="400" stroke="url(#networkGradient)" stroke-width="1" opacity="0.2" />
</svg>

